<svg xmlns="http://www.w3.org/2000/svg" viewBox="116.58 118.88 258.9 244.64" width="100%" height="100%">
  <g fill="none" stroke="#1e293b" stroke-width="8" stroke-linecap="round" stroke-linejoin="round">
    <path d="M 219.52 201.18 L 219.52 136.80 L 201.86 136.79 L 201.86 122.88 L 290.20 122.90 L 290.20 136.80 L 272.53 136.80 L 272.53 201.18 L 357.34 319.50 C 371.48 338.64 357.34 359.52 332.61 359.52 L 159.45 359.52 C 134.71 359.52 120.58 338.64 134.71 319.50 Z"/>
    <g transform="translate(233.70, 296.00) rotate(-15)">
      <path d="M -36 -45 L 9 -45 L 36 -18 L 36 45 L -36 45 Z"/>
      <path d="M 9 -45 L 9 -18 L 36 -18"/>
      <line x1="-14" y1="0" x2="14" y2="0"/>
      <line x1="-14" y1="20" x2="2" y2="20"/>
    </g>
    <circle cx="169.43" cy="315.46" r="14"/>
    <circle cx="255.61" cy="227.63" r="17.004"/>
    <circle cx="289.08" cy="319.70" r="27.831"/>
    <line x1="267.79" y1="155.68" x2="247.79" y2="155.68"/>
    <line x1="270.89" y1="173.50" x2="250.89" y2="173.50"/>
  </g>
</svg>
